<svg id="Componente_45_1" data-name="Componente 45 – 1" xmlns="http://www.w3.org/2000/svg" xmlns:xlink="http://www.w3.org/1999/xlink" width="158.755" height="21.299" viewBox="0 0 158.755 21.299">
  <defs>
    <linearGradient id="linear-gradient" x1="4488.135" y1="-3154.301" x2="-4486.027" y2="3154.776" gradientUnits="objectBoundingBox">
      <stop offset="0.036" stop-color="#46494a"/>
      <stop offset="0.272" stop-color="#3b3e3f"/>
      <stop offset="1" stop-color="#202324"/>
    </linearGradient>
    <linearGradient id="linear-gradient-2" x1="3783.084" y1="2825.334" x2="-3781.618" y2="-2823.37" xlink:href="#linear-gradient"/>
    <linearGradient id="linear-gradient-3" x1="-3779.88" y1="-2825.893" x2="3779.455" y2="2826.443" gradientUnits="objectBoundingBox">
      <stop offset="0" stop-color="#9f6a18"/>
      <stop offset="0.315" stop-color="#bb7f18"/>
      <stop offset="0.964" stop-color="#ffb219"/>
    </linearGradient>
  </defs>
  <path id="Caminho_78" data-name="Caminho 78" d="M-45.562-84.4l-1.05-2.575h-4.855l-1.05,2.575h-2.575l4.92-11.563h2.329L-42.922-84.4Zm-3.478-8.529-1.525,3.723h3.052Z" transform="translate(96.431 105.357)"/>
  <path id="Caminho_79" data-name="Caminho 79" d="M-42.567-84.409v-11.48h2.525v9.2h5.724v2.28Z" transform="translate(97.029 105.361)"/>
  <path id="Caminho_80" data-name="Caminho 80" d="M-24.935-90.133a3.593,3.593,0,0,1-.992,1.263,4.309,4.309,0,0,1-1.477.763,6.246,6.246,0,0,1-1.811.254h-1.919v3.445H-33.66v-11.48h4.689a5.535,5.535,0,0,1,1.846.286,3.916,3.916,0,0,1,1.378.812,3.565,3.565,0,0,1,.87,1.255,4.171,4.171,0,0,1,.3,1.615v.032A4.029,4.029,0,0,1-24.935-90.133Zm-2.2-1.738a1.569,1.569,0,0,0-.549-1.3,2.326,2.326,0,0,0-1.5-.443h-1.952V-90.1h2a2.05,2.05,0,0,0,1.476-.5,1.641,1.641,0,0,0,.525-1.238Z" transform="translate(97.453 105.361)"/>
  <path id="Caminho_81" data-name="Caminho 81" d="M-16.8-84.409v-4.609H-21.46v4.609h-2.525v-11.48h2.525v4.543H-16.8v-4.543h2.526v11.48Z" transform="translate(97.914 105.361)"/>
  <path id="Caminho_82" data-name="Caminho 82" d="M-4.28-84.4-5.33-86.98h-4.855l-1.05,2.575H-13.81l4.921-11.563h2.328L-1.639-84.4Zm-3.477-8.529-1.525,3.723h3.051Z" transform="translate(98.399 105.357)"/>
  <path id="Caminho_83" data-name="Caminho 83" d="M9.6-94.709h-7v3.92H8.858v1.181H2.592v4.019H9.678v1.181H1.3v-11.48H9.6Z" transform="translate(99.119 105.361)" fill="#ffc415"/>
  <path id="Caminho_84" data-name="Caminho 84" d="M22.375-85.023l-.885.968-1.509-1.378a6.007,6.007,0,0,1-1.641.9,5.764,5.764,0,0,1-1.984.328,5.824,5.824,0,0,1-2.387-.476,5.676,5.676,0,0,1-1.845-1.288,5.725,5.725,0,0,1-1.189-1.886,6.192,6.192,0,0,1-.418-2.272,6.087,6.087,0,0,1,.426-2.271,5.943,5.943,0,0,1,1.2-1.894A5.72,5.72,0,0,1,14-95.594a5.811,5.811,0,0,1,2.394-.483,5.824,5.824,0,0,1,2.387.476,5.671,5.671,0,0,1,1.845,1.288,5.721,5.721,0,0,1,1.189,1.886,6.208,6.208,0,0,1,.418,2.271,6.2,6.2,0,0,1-.353,2.083,5.571,5.571,0,0,1-1.024,1.788ZM16.9-88.09l.87-.968,2.116,1.919a4.649,4.649,0,0,0,.738-1.369,4.938,4.938,0,0,0,.263-1.617,5.086,5.086,0,0,0-.336-1.852,4.55,4.55,0,0,0-.944-1.51A4.557,4.557,0,0,0,18.168-94.5a4.33,4.33,0,0,0-1.811-.376,4.4,4.4,0,0,0-1.812.369A4.264,4.264,0,0,0,13.126-93.5,4.7,4.7,0,0,0,12.2-92a5.026,5.026,0,0,0-.335,1.845A5.091,5.091,0,0,0,12.2-88.3a4.56,4.56,0,0,0,.943,1.509,4.54,4.54,0,0,0,1.436,1.017,4.314,4.314,0,0,0,1.811.377,4.451,4.451,0,0,0,1.444-.229,4.029,4.029,0,0,0,1.2-.64Z" transform="translate(99.559 105.354)" fill="#ffc415"/>
  <path id="Caminho_85" data-name="Caminho 85" d="M32.917-89.313a6.5,6.5,0,0,1-.345,2.215,4.328,4.328,0,0,1-.975,1.59,4.021,4.021,0,0,1-1.51.96,5.692,5.692,0,0,1-1.959.32,5.648,5.648,0,0,1-1.943-.32,4.068,4.068,0,0,1-1.51-.951,4.27,4.27,0,0,1-.975-1.566,6.2,6.2,0,0,1-.345-2.149v-6.675h1.3V-89.3a4.074,4.074,0,0,0,.926,2.87,3.347,3.347,0,0,0,2.584,1,3.378,3.378,0,0,0,2.525-.95,3.892,3.892,0,0,0,.936-2.838v-6.675h1.3Z" transform="translate(100.171 105.361)" fill="#ffc415"/>
  <path id="Caminho_86" data-name="Caminho 86" d="M36.032-95.889v11.48h-1.3v-11.48Z" transform="translate(100.713 105.361)" fill="#ffc415"/>
  <path id="Caminho_87" data-name="Caminho 87" d="M42.765-84.409H41.47V-94.693H37.616v-1.2h9v1.2H42.765Z" transform="translate(100.851 105.361)" fill="#ffc415"/>
  <path id="Caminho_88" data-name="Caminho 88" d="M52.7-84.409h-1.3v-4.543l-4.772-6.938h1.575l3.862,5.74,3.9-5.74h1.509L52.7-88.968Z" transform="translate(101.28 105.361)" fill="#ffc415"/>
  <path id="Caminho_89" data-name="Caminho 89" d="M-74.271-104.931h-6.971l6.971,10.457,3.486-5.228Z" transform="translate(95.185 104.932)" fill="#ffc415"/>
  <path id="Caminho_90" data-name="Caminho 90" d="M-74.588-94.95h0Z" transform="translate(95.502 105.406)" fill="url(#linear-gradient)" style="mix-blend-mode: multiply;isolation: isolate"/>
  <path id="Caminho_91" data-name="Caminho 91" d="M-74.588-94.95h0Z" transform="translate(95.502 105.406)" fill="url(#linear-gradient-2)" style="mix-blend-mode: multiply;isolation: isolate"/>
  <path id="Caminho_92" data-name="Caminho 92" d="M-74.588-94.95h0Z" transform="translate(95.502 105.406)" fill="url(#linear-gradient-3)"/>
  <path id="Caminho_93" data-name="Caminho 93" d="M-67.639-104.931h-6.489l3.244,4.867Z" transform="translate(95.524 104.932)" fill="#ffc415"/>
  <path id="Caminho_94" data-name="Caminho 94" d="M-94.551-84.034h13.942l6.73-10.095-6.971-10.457Z" transform="translate(94.551 104.947)"/>
  <path id="Caminho_95" data-name="Caminho 95" d="M-60.657-84.272-70.873-99.595l-3.486,5.228,6.73,10.095Z" transform="translate(95.513 105.186)"/>
</svg>
