<svg id="Componente_14_1" data-name="Componente 14 – 1" xmlns="http://www.w3.org/2000/svg" width="122" height="119.202" viewBox="0 0 122 119.202">
  <g id="Retângulo_6" data-name="Retângulo 6" transform="translate(50)" fill="#ffc415" stroke="#000" stroke-width="2">
    <rect width="19" height="19" stroke="none"/>
    <rect x="1" y="1" width="17" height="17" fill="none"/>
  </g>
  <g id="Retângulo_7" data-name="Retângulo 7" transform="translate(34 33)" fill="#ffc415" stroke="#000" stroke-width="2">
    <rect width="19" height="19" stroke="none"/>
    <rect x="1" y="1" width="17" height="17" fill="none"/>
  </g>
  <g id="Retângulo_9" data-name="Retângulo 9" transform="translate(69 33)" fill="#ffc415" stroke="#000" stroke-width="2">
    <rect width="19" height="19" stroke="none"/>
    <rect x="1" y="1" width="17" height="17" fill="none"/>
  </g>
  <g id="Retângulo_13" data-name="Retângulo 13" transform="translate(103 33)" fill="#ffc415" stroke="#000" stroke-width="2">
    <rect width="19" height="19" stroke="none"/>
    <rect x="1" y="1" width="17" height="17" fill="none"/>
  </g>
  <g id="Retângulo_10" data-name="Retângulo 10" transform="translate(0 33)" fill="#ffc415" stroke="#000" stroke-width="2">
    <rect width="19" height="19" stroke="none"/>
    <rect x="1" y="1" width="17" height="17" fill="none"/>
  </g>
  <g id="Retângulo_8" data-name="Retângulo 8" transform="translate(34.294 67.062)" fill="#ffc415" stroke="#000" stroke-width="2">
    <rect width="19.075" height="19.075" stroke="none"/>
    <rect x="1" y="1" width="17.075" height="17.075" fill="none"/>
  </g>
  <g id="Retângulo_12" data-name="Retângulo 12" transform="translate(34.294 100.126)" fill="#ffc415" stroke="#000" stroke-width="2">
    <rect width="19.075" height="19.075" stroke="none"/>
    <rect x="1" y="1" width="17.075" height="17.075" fill="none"/>
  </g>
  <g id="Retângulo_11" data-name="Retângulo 11" transform="translate(68.63 67.062)" fill="#ffc415" stroke="#000" stroke-width="2">
    <rect width="19.075" height="19.075" stroke="none"/>
    <rect x="1" y="1" width="17.075" height="17.075" fill="none"/>
  </g>
  <line id="Linha_12" data-name="Linha 12" x2="103.008" transform="translate(9.496 26.368)" fill="none" stroke="#000" stroke-width="2"/>
  <line id="Linha_19" data-name="Linha 19" x2="68.672" transform="translate(43.832 60.068)" fill="none" stroke="#000" stroke-width="2"/>
  <line id="Linha_24" data-name="Linha 24" x2="35.608" transform="translate(43.832 93.132)" fill="none" stroke="#000" stroke-width="2"/>
  <line id="Linha_13" data-name="Linha 13" y2="7.63" transform="translate(9.496 26.368)" fill="none" stroke="#000" stroke-width="2"/>
  <line id="Linha_14" data-name="Linha 14" y2="7.63" transform="translate(43.196 26.368)" fill="none" stroke="#000" stroke-width="2"/>
  <line id="Linha_23" data-name="Linha 23" y2="7.63" transform="translate(78.804 86.138)" fill="none" stroke="#000" stroke-width="2"/>
  <line id="Linha_20" data-name="Linha 20" y2="7.63" transform="translate(112.504 52.438)" fill="none" stroke="#000" stroke-width="2"/>
  <line id="Linha_18" data-name="Linha 18" y2="16" transform="translate(43 52)" fill="none" stroke="#000" stroke-width="2"/>
  <line id="Linha_22" data-name="Linha 22" y2="15" transform="translate(43 86)" fill="none" stroke="#000" stroke-width="2"/>
  <line id="Linha_21" data-name="Linha 21" y2="8" transform="translate(79 60)" fill="none" stroke="#000" stroke-width="2"/>
  <line id="Linha_17" data-name="Linha 17" y2="7.63" transform="translate(59.092 18.738)" fill="none" stroke="#000" stroke-width="2"/>
  <line id="Linha_15" data-name="Linha 15" y2="7.63" transform="translate(78.168 26.368)" fill="none" stroke="#000" stroke-width="2"/>
  <line id="Linha_16" data-name="Linha 16" y2="7.63" transform="translate(112.504 26.368)" fill="none" stroke="#000" stroke-width="2"/>
</svg>
